<?xml version="1.0" encoding="UTF-8"?>
<svg viewBox="0 0 60 60" version="1.1" xmlns="http://www.w3.org/2000/svg" xmlns:xlink="http://www.w3.org/1999/xlink">
    <title>Rounded</title>
    <defs>
        <linearGradient x1="7.08187063%" y1="4.9583993%" x2="95.1288314%" y2="94.7117322%" id="linearGradient-1">
            <stop stop-color="#255CE3" offset="0%"></stop>
            <stop stop-color="#0D8E4A" offset="100%"></stop>
        </linearGradient>
        <rect id="path-2" x="6" y="6" width="48" height="48" rx="8"></rect>
        <filter x="-14.6%" y="-10.4%" width="129.2%" height="129.2%" filterUnits="objectBoundingBox" id="filter-3">
            <feOffset dx="0" dy="2" in="SourceAlpha" result="shadowOffsetOuter1"></feOffset>
            <feGaussianBlur stdDeviation="2" in="shadowOffsetOuter1" result="shadowBlurOuter1"></feGaussianBlur>
            <feColorMatrix values="0 0 0 0 0   0 0 0 0 0   0 0 0 0 0  0 0 0 0.5 0" type="matrix" in="shadowBlurOuter1"></feColorMatrix>
        </filter>
    </defs>
    <g id="Rounded" stroke="none" stroke-width="1" fill="none" fill-rule="evenodd">
        <g id="Rectangle">
            <use fill="black" fill-opacity="1" filter="url(#filter-3)" xlink:href="#path-2"></use>
            <use fill="url(#linearGradient-1)" fill-rule="evenodd" xlink:href="#path-2"></use>
        </g>
        <g id="icons8-mesh-2" transform="translate(10, 10)" fill="#FFFFFF" fill-rule="nonzero">
            <path d="M15.495251,0 L15.3052917,0.108548168 L5.75305292,4.4504749 L5.4816825,4.55902307 L5.34599729,4.83039349 L0.13568521,14.3826323 L0,14.5997286 L0.0271370421,14.843962 L0.895522388,27.8697422 L0.92265943,28.1682497 L1.11261872,28.412483 L9.79647218,37.9647218 L10.0135685,38.1818182 L10.312076,38.2360923 L22.4694708,39.972863 L22.7137042,40 L22.9308005,39.9185889 L33.3514247,35.5766621 L33.5956581,35.468114 L38.07327,29.1994573 L38.1818182,29.009498 L38.2360923,28.8195387 L39.972863,17.5305292 L40,17.3134328 L39.9185889,17.0963365 L36.4450475,7.54409769 L36.3636364,7.29986431 L36.119403,7.13704206 L27.4355495,1.05834464 L27.2455902,0.92265943 L27.0013569,0.895522388 L15.7123474,0.0271370421 L15.495251,0 Z M15.5223881,1.89959294 L17.6933514,3.63636364 L10.7734057,4.07055631 L15.5223881,1.89959294 Z M18.3989145,1.98100407 L22.9850746,2.33378562 L20.1628223,3.39213026 L18.3989145,1.98100407 Z M26.5943012,2.82225237 L29.7964722,7.62550882 L22.3066486,4.42333786 L26.5943012,2.82225237 Z M30.2306649,5.10176391 L33.9213026,7.70691995 L32.4559023,8.43962008 L30.2306649,5.10176391 Z M17.9647218,5.37313433 L13.0257802,10.9090909 L8.11397558,5.9972863 L17.9647218,5.37313433 Z M21.3297151,5.86160109 L30.5020353,9.79647218 L23.9620081,15.0339213 L21.3297151,5.86160109 Z M19.5929444,6.13297151 L22.1438263,15.0067843 L14.5183175,11.8317503 L19.5929444,6.13297151 Z M6.86567164,7.24559023 L11.8588874,12.238806 L6.24151967,18.4531886 L6.86567164,7.24559023 Z M5.02035278,9.03663501 L4.50474898,18.3446404 L1.92672999,14.7354138 L5.02035278,9.03663501 Z M35.1424695,9.06377205 L37.9918589,16.8792402 L35.3324288,17.9647218 L33.1886024,10.0407056 L35.1424695,9.06377205 Z M31.6689281,11.0719132 L33.541384,17.9647218 L25.4002714,16.0922659 L31.6689281,11.0719132 Z M14.0027137,13.541384 L21.92673,16.8249661 L14.6811398,24.0705563 L14.0027137,13.541384 Z M12.3202171,14.3012212 L12.9443691,24.504749 L6.56716418,20.6784261 L12.3202171,14.3012212 Z M24.6947083,17.6933514 L33.2700136,19.6743555 L27.3270014,27.5712347 L24.6947083,17.6933514 Z M1.98100407,17.8018996 L4.23337856,20.9497965 L2.41519674,24.5590231 L1.98100407,17.8018996 Z M23.0393487,18.2089552 L25.7259159,28.3039349 L15.6309362,25.6173677 L23.0393487,18.2089552 Z M37.9918589,18.7788331 L37.1234735,24.504749 L35.7937585,19.6472185 L37.9918589,18.7788331 Z M34.3826323,21.0854817 L36.2550882,27.8968792 L28.8195387,28.5210312 L34.3826323,21.0854817 Z M6.62143826,22.6865672 L12.3473541,26.1329715 L8.35820896,28.9823609 L6.62143826,22.6865672 Z M4.99321574,23.3107191 L6.54002714,28.9280868 L2.95793758,27.3812754 L4.99321574,23.3107191 Z M13.6770692,27.3270014 L17.7747626,33.7313433 L9.60651289,30.2306649 L13.6770692,27.3270014 Z M15.8751696,27.4898236 L25.156038,29.9592944 L20.1899593,34.3012212 L15.8751696,27.4898236 Z M35.5495251,29.7150611 L32.8629579,33.4871099 L29.0909091,30.2578019 L35.5495251,29.7150611 Z M5.10176391,30.1763908 L7.1641791,31.0719132 L8.05970149,33.4328358 L5.10176391,30.1763908 Z M26.9470828,30.6919946 L30.8548168,34.0298507 L22.4966079,34.5997286 L26.9470828,30.6919946 Z M9.36227951,32.0217096 L17.0420624,35.3052917 L10.990502,36.3907734 L9.36227951,32.0217096 Z M27.8426052,35.9837178 L22.9036635,38.046133 L21.6553596,36.3907734 L27.8426052,35.9837178 Z M19.6200814,36.5807327 L20.651289,37.9375848 L15.8480326,37.2591588 L19.6200814,36.5807327 Z" id="Shape"></path>
        </g>
    </g>
</svg>