<?xml version="1.0" encoding="UTF-8"?>
<svg width="1024px" height="1024px" viewBox="0 0 1024 1024" version="1.1" xmlns="http://www.w3.org/2000/svg" xmlns:xlink="http://www.w3.org/1999/xlink">
    <title>mac app icon@1x</title>
    <defs>
        <path d="M824,256.627066 C824,246.845101 824,237.062137 823.943901,227.279173 C823.894902,219.038203 823.799902,210.799233 823.575904,202.562263 C823.091908,184.609328 822.032915,166.502394 818.839939,148.749458 C815.601963,130.740524 810.314002,113.979585 801.981064,97.6166446 C793.789124,81.5337032 783.088204,66.8167567 770.320298,54.0578032 C757.555393,41.2988496 742.834502,30.6048886 726.745621,22.4179184 C710.365742,14.0829487 693.586866,8.79696797 675.558,5.55997976 C657.803131,2.37199136 639.691265,1.31499521 621.738398,0.829996978 C613.495459,0.60699779 605.25252,0.512998132 597.007581,0.461998318 C587.219653,0.401998536 577.431726,0.406998518 567.643798,0.406998518 L453.99664,0 L368.997269,0 L257.361095,0.406998518 C247.554168,0.406998518 237.74724,0.401998536 227.940313,0.461998318 C219.678374,0.512998132 211.420435,0.60699779 203.161496,0.829996978 C185.166629,1.31499521 167.013764,2.37299136 149.216896,5.56497974 C131.164029,8.80096796 114.360154,14.0849487 97.9582749,22.4139184 C81.8353943,30.6018886 67.0825035,41.2968496 54.2905981,54.0578032 C41.5006928,66.8157567 30.7797722,81.5297032 22.5728329,97.6096446 C14.2168948,113.980585 8.91893398,130.751524 5.67295801,148.770458 C2.47698167,166.516394 1.4179895,184.617328 0.930993109,202.562263 C0.708994752,210.800233 0.612995463,219.039203 0.562995833,227.279173 C0.502996277,237.063137 0,249.216093 0,258.999057 L0,369.088656 L0,454.998343 L0.50799624,567.426934 C0.50799624,577.222898 0.503996269,587.018863 0.562995833,596.814827 C0.612995463,605.066797 0.708994752,613.316767 0.931993101,621.565737 C1.4179895,639.541672 2.47898165,657.674606 5.67795797,675.451541 C8.92293395,693.484475 14.2198947,710.269414 22.5688329,726.653354 C30.7767722,742.759296 41.4996928,757.495242 54.2905981,770.272196 C67.0815035,783.049149 81.8303943,793.75711 97.950275,801.95608 C114.362153,810.30205 131.174029,815.595031 149.237895,818.836019 C167.026764,822.029007 185.173629,823.088003 203.161496,823.573002 C211.420435,823.796001 219.679374,823.891 227.941313,823.941 C237.74824,824 247.554168,824 257.361095,824 L370.006261,824 L455.216631,824 L567.643798,824 C577.431726,824 587.219653,824 597.007581,823.941 C605.25252,823.891 613.495459,823.796001 621.738398,823.573002 C639.698265,823.087003 657.816131,822.027007 675.578999,818.832019 C693.596866,815.591031 710.367742,810.30005 726.738621,801.95908 C742.830502,793.76111 757.554393,783.051149 770.320298,770.272196 C783.086204,757.497242 793.786124,742.763296 801.978064,726.660354 C810.316002,710.268414 815.603963,693.475475 818.843939,675.430541 C822.033915,657.660606 823.091908,639.534672 823.576904,621.565737 C823.799902,613.315767 823.894902,605.065797 823.943901,596.814827 C824,587.018863 824,577.222898 824,567.426934 C824,567.426934 824,456.983336 824,454.998343 L824,368.998657 C824,367.532662 824,256.627066 824,256.627066" id="path-1"></path>
        <filter x="-2.4%" y="-1.2%" width="104.9%" height="104.9%" filterUnits="objectBoundingBox" id="filter-3">
            <feOffset dx="0" dy="10" in="SourceAlpha" result="shadowOffsetOuter1"></feOffset>
            <feGaussianBlur stdDeviation="5" in="shadowOffsetOuter1" result="shadowBlurOuter1"></feGaussianBlur>
            <feColorMatrix values="0 0 0 0 0   0 0 0 0 0   0 0 0 0 0  0 0 0 0.3 0" type="matrix" in="shadowBlurOuter1"></feColorMatrix>
        </filter>
        <linearGradient x1="20.8407792%" y1="79.381711%" x2="80.4817661%" y2="20.5806414%" id="linearGradient-4">
            <stop stop-color="#00B5F6" offset="0%"></stop>
            <stop stop-color="#9644D6" offset="100%"></stop>
        </linearGradient>
    </defs>
    <g id="mac-app-icon" stroke="none" stroke-width="1" fill="none" fill-rule="evenodd">
        <g id="Artwork" transform="translate(100, 100)">
            <mask id="mask-2" fill="white">
                <use xlink:href="#path-1"></use>
            </mask>
            <g id="Mask">
                <use fill="black" fill-opacity="1" filter="url(#filter-3)" xlink:href="#path-1"></use>
                <use fill="#FFFFFF" fill-rule="evenodd" xlink:href="#path-1"></use>
            </g>
            <g id="Icon-Center-Image-Artwork" mask="url(#mask-2)"></g>
            <rect id="path-2" fill="url(#linearGradient-4)" mask="url(#mask-2)" x="-100" y="-100" width="1024" height="1024"></rect>
        </g>
        <g id="icons8-mesh-2" transform="translate(152.3333, 152.3333)" fill="#FFFFFF" fill-rule="nonzero">
            <path d="M278.914518,0 L275.495251,1.95386702 L103.554953,80.1085482 L98.670285,82.0624153 L96.2279512,86.9470828 L2.44233378,258.887381 L0,262.795115 L0.488466758,267.191316 L16.119403,501.65536 L16.6078697,507.028495 L20.027137,511.424694 L176.336499,683.364992 L180.244233,687.272728 L185.617368,688.249661 L404.450474,719.511534 L408.846676,720 L412.754409,718.5346 L600.325645,640.379918 L604.721846,638.426052 L685.31886,525.590231 L687.272728,522.170964 L688.249661,518.751697 L719.511534,315.549526 L720,311.64179 L718.5346,307.734057 L656.010855,135.793758 L654.545455,131.397558 L650.149254,128.466757 L493.839891,19.0502035 L490.420624,16.6078697 L486.024424,16.119403 L282.822253,0.488466758 L278.914518,0 Z M279.402986,34.1926729 L318.480325,65.4545455 L193.921303,73.2700136 L279.402986,34.1926729 Z M331.180461,35.6580733 L413.731343,42.0081412 L362.930801,61.0583447 L331.180461,35.6580733 Z M478.697422,50.8005427 L536.3365,137.259159 L401.519675,79.6200815 L478.697422,50.8005427 Z M544.151968,91.8317504 L610.583447,138.724559 L584.206241,151.913161 L544.151968,91.8317504 Z M323.364992,96.7164179 L234.464044,196.363636 L146.05156,107.951153 L323.364992,96.7164179 Z M383.934872,105.50882 L549.036635,176.336499 L431.316146,270.610583 L383.934872,105.50882 Z M352.672999,110.393487 L398.588873,270.122117 L261.329715,212.971505 L352.672999,110.393487 Z M123.58209,130.420624 L213.459973,220.298508 L112.347354,332.157395 L123.58209,130.420624 Z M90.36635,162.65943 L81.0854816,330.203527 L34.6811398,265.237448 L90.36635,162.65943 Z M632.564451,163.147897 L683.85346,303.826324 L635.983718,323.364992 L597.394843,180.732701 L632.564451,163.147897 Z M570.040706,199.294438 L603.744912,323.364992 L457.204885,289.660786 L570.040706,199.294438 Z M252.048847,243.744912 L394.68114,302.84939 L264.260516,433.270013 L252.048847,243.744912 Z M221.763908,257.421982 L232.998644,441.085482 L118.208955,372.21167 L221.763908,257.421982 Z M444.504749,318.480325 L598.860245,354.138399 L491.886025,496.282225 L444.504749,318.480325 Z M35.6580733,320.434193 L76.2008141,377.096337 L43.4735413,442.062416 L35.6580733,320.434193 Z M414.708277,327.761194 L463.066486,509.470828 L281.356852,461.112619 L414.708277,327.761194 Z M683.85346,338.018996 L668.222523,441.085482 L644.287653,353.649933 L683.85346,338.018996 Z M618.887381,379.538671 L652.591588,502.143826 L518.751697,513.378562 L618.887381,379.538671 Z M119.185889,408.35821 L222.252374,470.393487 L150.447761,521.682496 L119.185889,408.35821 Z M89.8778833,419.592944 L117.720489,520.705562 L53.2428764,492.862957 L89.8778833,419.592944 Z M246.187246,491.886025 L319.945727,607.164179 L172.917232,544.151968 L246.187246,491.886025 Z M285.753053,494.816825 L452.808684,539.267299 L363.419267,617.421982 L285.753053,494.816825 Z M639.891452,534.8711 L591.533242,602.767978 L523.636364,544.640434 L639.891452,534.8711 Z M91.8317504,543.175034 L128.955224,559.294438 L145.074627,601.791044 L91.8317504,543.175034 Z M485.04749,552.455903 L555.386702,612.537313 L404.938942,622.795115 L485.04749,552.455903 Z M168.521031,578.148585 L306.757123,637.253063 L197.829036,656.791734 L168.521031,578.148585 Z M501.166894,663.527233 L412.265943,700.650707 L389.796473,670.854234 L501.166894,663.527233 Z M353.161465,658.453189 L371.723202,682.876526 L285.264587,670.664858 L353.161465,658.453189 Z" id="Shape"></path>
        </g>
    </g>
</svg>